<svg xmlns="http://www.w3.org/2000/svg" viewBox="0 0 512 512">
  <defs>
    <linearGradient id="bg" x1="0%" y1="0%" x2="100%" y2="100%">
      <stop offset="0%" stop-color="#D4A5A5"/>
      <stop offset="100%" stop-color="#B8A9C9"/>
    </linearGradient>
  </defs>
  <!-- Background -->
  <rect width="512" height="512" rx="96" fill="url(#bg)"/>
  <!-- Glow rings -->
  <circle cx="256" cy="220" r="120" stroke="#FFFFFF" stroke-width="1.5" fill="none" opacity="0.2"/>
  <circle cx="256" cy="220" r="90" stroke="#FFFFFF" stroke-width="1" fill="none" opacity="0.15"/>
  <!-- Flower petals -->
  <ellipse cx="256" cy="160" rx="28" ry="52" fill="#FFFFFF" opacity="0.65" transform="rotate(0 256 220)"/>
  <ellipse cx="256" cy="160" rx="28" ry="52" fill="#F5D0C5" opacity="0.55" transform="rotate(60 256 220)"/>
  <ellipse cx="256" cy="160" rx="28" ry="52" fill="#FEDFE1" opacity="0.55" transform="rotate(120 256 220)"/>
  <ellipse cx="256" cy="160" rx="28" ry="52" fill="#C4B7D7" opacity="0.55" transform="rotate(180 256 220)"/>
  <ellipse cx="256" cy="160" rx="28" ry="52" fill="#E8B4B8" opacity="0.55" transform="rotate(240 256 220)"/>
  <ellipse cx="256" cy="160" rx="28" ry="52" fill="#FFFFFF" opacity="0.5" transform="rotate(300 256 220)"/>
  <!-- Center -->
  <circle cx="256" cy="220" r="22" fill="#FFFFFF" opacity="0.85"/>
  <!-- Leaves -->
  <path d="M256 280 C230 330, 190 350, 160 340" stroke="#FFFFFF" stroke-width="6" fill="none" stroke-linecap="round" opacity="0.5"/>
  <path d="M256 280 C282 330, 322 350, 352 340" stroke="#FFFFFF" stroke-width="6" fill="none" stroke-linecap="round" opacity="0.5"/>
  <path d="M248 300 C224 310, 196 305, 178 290" stroke="#FFFFFF" stroke-width="3.5" fill="none" stroke-linecap="round" opacity="0.35"/>
  <path d="M264 300 C288 310, 316 305, 334 290" stroke="#FFFFFF" stroke-width="3.5" fill="none" stroke-linecap="round" opacity="0.35"/>
  <!-- Brand text -->
  <text x="256" y="430" text-anchor="middle" font-family="system-ui, sans-serif" font-weight="700" font-size="48" fill="#FFFFFF" opacity="0.6" letter-spacing="4">Hello Ruru</text>
</svg>
