<svg xmlns="http://www.w3.org/2000/svg" viewBox="0 0 120 120">
  <circle cx="62" cy="62" r="54" fill="rgba(0,0,0,0.08)"/>
  <circle cx="60" cy="60" r="54" fill="#FFFFFF"/>
  <g transform="translate(60,58)">
    <ellipse rx="6" ry="17" fill="#FFD54F" transform="rotate(0) translate(0,-22)"/>
    <ellipse rx="6" ry="17" fill="#FFC107" transform="rotate(30) translate(0,-22)"/>
    <ellipse rx="6" ry="17" fill="#FFD54F" transform="rotate(60) translate(0,-22)"/>
    <ellipse rx="6" ry="17" fill="#FFC107" transform="rotate(90) translate(0,-22)"/>
    <ellipse rx="6" ry="17" fill="#FFD54F" transform="rotate(120) translate(0,-22)"/>
    <ellipse rx="6" ry="17" fill="#FFC107" transform="rotate(150) translate(0,-22)"/>
    <ellipse rx="6" ry="17" fill="#FFD54F" transform="rotate(15) translate(0,-22)"/>
    <ellipse rx="6" ry="17" fill="#FFC107" transform="rotate(45) translate(0,-22)"/>
    <ellipse rx="6" ry="17" fill="#FFD54F" transform="rotate(75) translate(0,-22)"/>
    <ellipse rx="6" ry="17" fill="#FFC107" transform="rotate(105) translate(0,-22)"/>
    <ellipse rx="6" ry="17" fill="#FFD54F" transform="rotate(135) translate(0,-22)"/>
    <ellipse rx="6" ry="17" fill="#FFC107" transform="rotate(165) translate(0,-22)"/>
  </g>
  <circle cx="60" cy="58" r="14" fill="#795548"/>
  <circle cx="60" cy="58" r="10" fill="#8D6E63"/>
  <circle cx="56" cy="55" r="2" fill="#6D4C41"/>
  <circle cx="63" cy="54" r="1.5" fill="#6D4C41"/>
  <circle cx="60" cy="61" r="1.5" fill="#6D4C41"/>
  <path d="M60 74 L58 95 Q57 98 60 98 Q63 98 62 95 Z" fill="#66BB6A"/>
  <ellipse cx="52" cy="88" rx="8" ry="4" fill="#81C784" transform="rotate(-20 52 88)"/>
</svg>
